<svg width="36" height="36" viewBox="0 0 36 36" fill="none" xmlns="http://www.w3.org/2000/svg"><g clip-path="url(#clip0_1_15944)" fill="#FFD464"><path d="M27.373 20.115c-1.178 2.39-2.776 4.77-4.41 6.908A70.879 70.879 0 0118 32.805a70.806 70.806 0 01-4.963-5.782c-1.634-2.138-3.232-4.518-4.41-6.908C7.434 17.701 6.75 15.44 6.75 13.5a11.25 11.25 0 1122.5 0c0 1.94-.686 4.2-1.877 6.615zM18 36s13.5-12.794 13.5-22.5a13.5 13.5 0 10-27 0C4.5 23.206 18 36 18 36z"/><path d="M18 18a4.5 4.5 0 110-9 4.5 4.5 0 010 9zm0 2.25a6.75 6.75 0 100-13.5 6.75 6.75 0 000 13.5z"/></g><defs><clipPath id="clip0_1_15944"><path fill="#fff" d="M0 0h36v36H0z"/></clipPath></defs></svg>