<?xml version="1.0" encoding="UTF-8"?> <svg xmlns="http://www.w3.org/2000/svg" width="80" height="90" viewBox="0 0 80 90" fill="none"><path opacity="0.5" d="M39.7914 90C0.426888 75.485 -2.40102 30.4774 1.10559 9.78801C15.6103 4.88482 32.9398 0.567499 39.7914 0C64.1858 2.1792 76.1341 8.08552 79.059 9.78801C85.6909 64.4236 55.6439 86.0275 39.7914 90Z" fill="url(#paint0_linear_1_11295)" fill-opacity="0.7"></path><path d="M54.7638 31.829C55.6556 32.208 56.5985 32.5392 57.3963 32.9823C58.1505 33.4013 58.775 33.9202 59.104 34.6742C59.2047 34.905 59.3014 35.1381 59.3939 35.3732C60.318 37.7218 57.7084 40.4743 57.7084 42.9981C57.7084 45.522 60.318 48.2745 59.3939 50.623C59.3017 50.8576 59.2053 51.09 59.1048 51.3203C58.096 53.6329 54.3059 53.7352 52.5218 55.5193C50.7376 57.3034 50.6355 61.0937 48.3228 62.1026C48.0924 62.2031 47.8597 62.2996 47.625 62.392C45.2765 63.3161 42.5239 60.7065 40.0001 60.7065C37.4763 60.7065 34.7238 63.3161 32.3752 62.392C32.1405 62.2996 31.9078 62.2031 31.6773 62.1025C30.4673 61.5747 29.8624 60.2854 29.3051 58.9206M50.4617 26.5199C49.9605 25.3714 49.367 24.3492 48.323 23.8938C48.0925 23.7932 47.8598 23.6967 47.625 23.6043C45.2764 22.6802 42.5239 25.2898 40.0001 25.2898C37.4763 25.2898 34.7237 22.6802 32.3752 23.6043C32.1404 23.6967 31.9077 23.7932 31.6772 23.8938C29.3648 24.9026 29.2624 28.692 27.4784 30.476C25.6944 32.26 21.9048 32.3623 20.8959 34.6748C20.7953 34.9054 20.6987 35.1383 20.6063 35.3732C19.6822 37.7218 22.2918 40.4743 22.2918 42.9981C22.2918 45.5219 19.6822 48.2745 20.6063 50.623C20.6986 50.8578 20.7951 51.0904 20.8957 51.3209C21.4618 52.6186 22.9036 53.2203 24.3752 53.8137" stroke="#D1511B" stroke-width="5" stroke-linecap="round"></path><path d="M36.1116 39.1136C35.0946 40.1305 33.4457 40.1305 32.4288 39.1136C31.4118 38.0966 31.4118 36.4477 32.4288 35.4307C33.4457 34.4137 35.0946 34.4137 36.1116 35.4307C37.1286 36.4477 37.1286 38.0966 36.1116 39.1136Z" fill="#D1511B"></path><path d="M47.5706 50.5706C46.5536 51.5876 44.9047 51.5876 43.8877 50.5706C42.8708 49.5536 42.8708 47.9047 43.8877 46.8877C44.9047 45.8708 46.5536 45.8708 47.5706 46.8877C48.5876 47.9047 48.5876 49.5536 47.5706 50.5706Z" fill="#D1511B"></path><path d="M35.3377 47.6643L44.666 38.3359" stroke="#D1511B" stroke-width="5" stroke-linecap="round" stroke-linejoin="round"></path><defs><linearGradient id="paint0_linear_1_11295" x1="80" y1="0" x2="-9.3793" y2="79.4483" gradientUnits="userSpaceOnUse"><stop stop-color="#D1511B" stop-opacity="0.6"></stop><stop offset="1" stop-color="#D1511B" stop-opacity="0.3"></stop></linearGradient></defs></svg> 