<?xml version="1.0" encoding="UTF-8"?> <svg xmlns="http://www.w3.org/2000/svg" width="80" height="90" viewBox="0 0 80 90" fill="none"><path d="M38.3351 89.4426C1.41672 74.7863 -2.17838 32.6597 0.830845 11.5521C0.986623 10.4594 1.75624 9.56656 2.80434 9.22063C16.9381 4.55574 33.2054 0.545501 39.7914 0C61.4901 1.93839 73.3415 6.82571 77.7542 9.08033C78.591 9.50784 79.1303 10.358 79.2333 11.2919C84.9562 63.1759 57.2857 84.7281 41.2774 89.5877C40.3152 89.8798 39.2696 89.8136 38.3351 89.4426Z" fill="#6969B5"></path><path d="M33.3508 35.5102C33.3508 39.4271 36.526 42.6024 40.443 42.6024C44.3599 42.6024 47.5352 39.4271 47.5352 35.5102C47.5352 31.5933 44.3599 28.418 40.443 28.418" stroke="#3635A5" stroke-width="5" stroke-linecap="round"></path><path d="M28.0312 53.1248C28.0312 51.5993 28.9902 50.2386 30.4268 49.7255V49.7255C36.9037 47.4123 43.9815 47.4123 50.4584 49.7255V49.7255C51.895 50.2386 52.8539 51.5993 52.8539 53.1248V55.4573C52.8539 57.5627 50.9892 59.1799 48.905 58.8822L48.2101 58.7829C43.0579 58.0469 37.8273 58.0469 32.6751 58.7829L31.9802 58.8822C29.896 59.1799 28.0312 57.5627 28.0312 55.4573V53.1248Z" stroke="#3635A5" stroke-width="5"></path><path d="M51.0819 42.7972C54.1594 42.7972 56.6543 40.3024 56.6543 37.2248C56.6543 34.1472 54.1594 31.6523 51.0819 31.6523" stroke="#3635A5" stroke-width="5" stroke-linecap="round"></path><path d="M57.1841 55.5091L57.7301 55.5871C59.3677 55.821 60.8328 54.5503 60.8328 52.8961V51.0635C60.8328 49.8649 60.0794 48.7957 58.9506 48.3926C57.8247 47.9905 56.6756 47.6773 55.5137 47.4531" stroke="#3635A5" stroke-width="5" stroke-linecap="round"></path><path d="M28.9181 42.7972C25.8406 42.7972 23.3457 40.3024 23.3457 37.2248C23.3457 34.1472 25.8406 31.6523 28.9181 31.6523" stroke="#3635A5" stroke-width="5" stroke-linecap="round"></path><path d="M22.8159 55.5091L22.2699 55.5871C20.6323 55.821 19.1672 54.5503 19.1672 52.8961V51.0635C19.1672 49.8649 19.9206 48.7957 21.0494 48.3926C22.1753 47.9905 23.3244 47.6773 24.4863 47.4531" stroke="#3635A5" stroke-width="5" stroke-linecap="round"></path></svg> 