<?xml version="1.0" encoding="UTF-8"?> <svg xmlns="http://www.w3.org/2000/svg" width="80" height="90" viewBox="0 0 80 90" fill="none"><path d="M38.3351 89.4426C1.41672 74.7863 -2.17838 32.6597 0.830845 11.5521C0.986623 10.4594 1.75624 9.56656 2.80434 9.22063C16.9381 4.55574 33.2054 0.545501 39.7914 0C61.4901 1.93839 73.3415 6.82571 77.7542 9.08033C78.591 9.50784 79.1303 10.358 79.2333 11.2919C84.9562 63.1759 57.2857 84.7281 41.2774 89.5877C40.3152 89.8798 39.2696 89.8136 38.3351 89.4426Z" fill="#7776F7"></path><path d="M28.543 60.4033C29.0002 60.705 29.47 60.9891 29.9514 61.2547C32.9314 62.899 36.3571 63.8346 40.0013 63.8346C51.5072 63.8346 60.8346 54.5072 60.8346 43.0013C60.8346 31.4954 51.5072 22.168 40.0013 22.168C28.4954 22.168 19.168 31.4954 19.168 43.0013C19.168 46.6581 20.1101 50.0949 21.765 53.0821C22.0257 53.5527 22.3041 54.0122 22.5993 54.4596" stroke="#5655EF" stroke-width="5" stroke-linecap="round"></path><circle cx="4.16667" cy="4.16667" r="4.16667" transform="matrix(-1 0 0 1 44.168 38.8359)" stroke="#5655EF" stroke-width="5"></circle><path d="M34.4715 29.5076C31.7659 30.6166 29.4561 32.5134 27.8421 34.9518" stroke="#5655EF" stroke-width="5" stroke-linecap="round"></path></svg> 