<?xml version="1.0" encoding="UTF-8"?> <svg xmlns="http://www.w3.org/2000/svg" width="80" height="90" viewBox="0 0 80 90" fill="none"><path opacity="0.5" d="M39.7914 90C0.426889 75.485 -2.40102 30.4774 1.10559 9.78801C15.6103 4.88482 32.9398 0.567499 39.7914 0C64.1858 2.1792 76.1341 8.08552 79.059 9.78801C85.6909 64.4236 55.6439 86.0275 39.7914 90Z" fill="url(#paint0_linear_1_11287)" fill-opacity="0.7"></path><path d="M19.166 39.8464V38.8357C19.166 32.6729 24.487 27.8575 30.6192 28.4707L38.7555 29.2843C39.5827 29.367 40.416 29.367 41.2431 29.2843L49.3795 28.4707C55.5117 27.8575 60.8327 32.6729 60.8327 38.8357V51.3346C60.8327 58.8205 51.0496 61.6579 47.0442 55.3337C44.1894 50.826 37.6667 50.6755 34.6068 55.0466L34.0147 55.8926C29.4384 62.4302 19.166 59.1921 19.166 51.212V48.1179" stroke="#6766FF" stroke-width="5" stroke-linecap="round"></path><circle cx="52.4993" cy="38.7824" r="2.08333" fill="#6766FF"></circle><circle cx="48.3333" cy="45.0325" r="2.08333" fill="#6766FF"></circle><path d="M31.666 46.0755L31.666 37.7422" stroke="#6766FF" stroke-width="5" stroke-linecap="round" stroke-linejoin="round"></path><path d="M27.5007 41.9062H35.834" stroke="#6766FF" stroke-width="5" stroke-linecap="round" stroke-linejoin="round"></path><defs><linearGradient id="paint0_linear_1_11287" x1="80" y1="0" x2="-9.3793" y2="79.4483" gradientUnits="userSpaceOnUse"><stop stop-color="#5655EF" stop-opacity="0.6"></stop><stop offset="1" stop-color="#5655EF" stop-opacity="0.3"></stop></linearGradient></defs></svg> 