<?xml version="1.0" encoding="UTF-8"?> <svg xmlns="http://www.w3.org/2000/svg" width="80" height="90" viewBox="0 0 80 90" fill="none"><path d="M38.3351 89.4426C1.41672 74.7863 -2.17838 32.6597 0.830845 11.5521C0.986623 10.4594 1.75624 9.56656 2.80434 9.22063C16.9381 4.55574 33.2054 0.545501 39.7914 0C61.4901 1.93839 73.3415 6.82571 77.7542 9.08033C78.591 9.50784 79.1303 10.358 79.2333 11.2919C84.9562 63.1759 57.2857 84.7281 41.2774 89.5877C40.3152 89.8798 39.2696 89.8136 38.3351 89.4426Z" fill="#865CD0"></path><path d="M46.2493 31.7641C44.8045 29.7296 43.7313 27.4981 43.6501 24.6044C43.6456 24.4456 43.4724 24.3467 43.3361 24.4281C36.1166 28.7412 36.2503 39.5606 36.3364 41.521C36.3429 41.6689 36.203 41.7733 36.0691 41.7102C35.2351 41.3174 32.8454 39.8381 32.7134 35.7402C32.7083 35.5812 32.5367 35.479 32.3998 35.5601C28.2197 38.0376 25.416 42.6133 25.416 47.6875C25.416 55.454 31.9452 61.75 39.9993 61.75C48.0535 61.75 54.5827 55.454 54.5827 47.6875C54.5827 43.2516 52.9341 40.1847 50.917 37.5266" stroke="#6A37C4" stroke-width="5" stroke-linecap="round"></path></svg> 