<svg width="80" height="90" viewBox="0 0 80 90" fill="none" xmlns="http://www.w3.org/2000/svg">
<path d="M38.3351 89.4426C1.41672 74.7863 -2.17838 32.6597 0.830845 11.5521C0.986623 10.4594 1.75624 9.56656 2.80434 9.22063C16.9381 4.55574 33.2054 0.545501 39.7914 0C61.4901 1.93839 73.3415 6.82571 77.7542 9.08033C78.591 9.50784 79.1303 10.358 79.2333 11.2919C84.9562 63.1759 57.2857 84.7281 41.2774 89.5877C40.3152 89.8798 39.2696 89.8136 38.3351 89.4426Z" fill="#865CD0"/>
<path d="M44.224 60H50.5384C50.9516 60 51.3222 59.7459 51.4712 59.3605L59.9977 37.302C60.3268 36.4503 59.4363 35.6392 58.6191 36.0463L49.2559 40.71C48.7487 40.9626 48.1332 40.7438 47.8992 40.2277L40.6348 24.1998C40.267 23.3882 39.1015 23.4267 38.788 24.2608L32.8119 40.1587C32.6066 40.705 31.9789 40.9601 31.4507 40.7119L21.5006 36.0374C20.6625 35.6436 19.7855 36.5022 20.1615 37.3484L29.9601 59.406C30.1206 59.7672 30.4787 60 30.874 60H37.4654" stroke="#6A37C4" stroke-width="5" stroke-linecap="round"/>
</svg>
