<?xml version="1.0" encoding="UTF-8"?> <svg xmlns="http://www.w3.org/2000/svg" width="80" height="90" viewBox="0 0 80 90" fill="none"><path d="M38.3351 89.4426C1.41672 74.7863 -2.17838 32.6597 0.830845 11.5521C0.986623 10.4594 1.75624 9.56656 2.80434 9.22063C16.9381 4.55574 33.2054 0.545501 39.7914 0C61.4901 1.93839 73.3415 6.82571 77.7542 9.08033C78.591 9.50784 79.1303 10.358 79.2333 11.2919C84.9562 63.1759 57.2857 84.7281 41.2774 89.5877C40.3152 89.8798 39.2696 89.8136 38.3351 89.4426Z" fill="#DB7144"></path><path d="M43.1272 26.2943L40.8583 22.5129C40.4702 21.8661 39.5329 21.8655 39.144 22.5118L32.4588 33.6202L19.8258 36.546C19.0915 36.7161 18.8022 37.6066 19.2963 38.1758L27.7969 47.9683L27.4806 51.6119M46.6024 32.0534L47.5453 33.6202L60.1783 36.546C60.9126 36.7161 61.202 37.6066 60.7078 38.1758L52.2073 47.9683L53.3285 60.8871C53.3936 61.6381 52.6362 62.1884 51.9421 61.8944L40.0021 56.8359L28.062 61.8944C27.368 62.1884 26.6105 61.6381 26.6757 60.8871L26.8482 58.899L26.9273 57.9881" stroke="#D1511B" stroke-width="5" stroke-linecap="round"></path></svg> 